{"glyphs":{"0":{"ha":1042,"x_min":33,"x_max":1009,"o":"m 33 -98 l 33 879 l 1009 879 l 1009 -98 l 33 -98 m 727 184 l 727 597 l 315 597 l 315 184 l 727 184 z "},"1":{"ha":347,"x_min":33,"x_max":315,"o":"m 315 879 l 315 -98 l 33 -98 l 33 879 l 315 879 z "},"2":{"ha":1042,"x_min":33,"x_max":1009,"o":"m 33 879 l 1009 879 l 1009 250 l 315 250 l 315 184 l 1009 184 l 1009 -98 l 33 -98 l 33 532 l 727 532 l 727 597 l 33 597 l 33 879 z "},"3":{"ha":1042,"x_min":33,"x_max":1009,"o":"m 1009 -98 l 33 -98 l 33 184 l 727 184 l 727 250 l 33 250 l 33 532 l 727 532 l 727 597 l 33 597 l 33 879 l 1009 879 l 1009 -98 z "},"4":{"ha":1042,"x_min":33,"x_max":1009,"o":"m 315 879 l 315 532 l 727 532 l 727 879 l 1009 879 l 1009 -98 l 727 -98 l 727 250 l 33 250 l 33 879 l 315 879 z "},"5":{"ha":1042,"x_min":33,"x_max":1009,"o":"m 1009 597 l 315 597 l 315 532 l 1009 532 l 1009 -98 l 33 -98 l 33 184 l 727 184 l 727 250 l 33 250 l 33 879 l 1009 879 l 1009 597 z "},"6":{"ha":1042,"x_min":33,"x_max":1009,"o":"m 1009 879 l 1009 597 l 315 597 l 315 532 l 1009 532 l 1009 -98 l 33 -98 l 33 879 l 1009 879 m 315 250 l 315 184 l 727 184 l 727 250 l 315 250 z "},"7":{"ha":1042,"x_min":33,"x_max":1009,"o":"m 33 879 l 1009 879 l 1009 -98 l 727 -98 l 727 597 l 33 597 l 33 879 z "},"8":{"ha":1042,"x_min":33,"x_max":1009,"o":"m 1009 879 l 1009 -98 l 33 -98 l 33 879 l 1009 879 m 315 597 l 315 532 l 727 532 l 727 597 l 315 597 m 315 250 l 315 184 l 727 184 l 727 250 l 315 250 z "},"9":{"ha":1042,"x_min":33,"x_max":1009,"o":"m 33 -98 l 33 184 l 727 184 l 727 250 l 33 250 l 33 879 l 1009 879 l 1009 -98 l 33 -98 m 315 597 l 315 532 l 727 532 l 727 597 l 315 597 z "}," ":{"ha":694,"x_min":0,"x_max":0,"o":""},"!":{"ha":347,"x_min":33,"x_max":315,"o":"m 315 879 l 315 250 l 33 250 l 33 879 l 315 879 m 315 184 l 315 -98 l 33 -98 l 33 184 l 315 184 z "},"\"":{"ha":694,"x_min":33,"x_max":662,"o":"m 33 423 l 33 879 l 315 879 l 315 423 l 33 423 m 380 423 l 380 879 l 662 879 l 662 423 l 380 423 z "},"#":{"ha":1042,"x_min":33,"x_max":1009,"o":"m 206 358 l 206 423 l 33 423 l 33 705 l 206 705 l 206 879 l 488 879 l 488 705 l 553 705 l 553 879 l 836 879 l 836 705 l 1009 705 l 1009 423 l 836 423 l 836 358 l 1009 358 l 1009 76 l 836 76 l 836 -98 l 553 -98 l 553 76 l 488 76 l 488 -98 l 206 -98 l 206 76 l 33 76 l 33 358 l 206 358 m 488 423 l 488 358 l 553 358 l 553 423 l 488 423 z "},"$":{"ha":1042,"x_min":33,"x_max":1009,"o":"m 662 879 l 1009 879 l 1009 597 l 662 597 l 662 532 l 1009 532 l 1009 -98 l 662 -98 l 662 -271 l 380 -271 l 380 -98 l 33 -98 l 33 184 l 380 184 l 380 250 l 33 250 l 33 879 l 380 879 l 380 1053 l 662 1053 l 662 879 m 380 597 l 315 597 l 315 532 l 380 532 l 380 597 m 662 250 l 662 184 l 727 184 l 727 250 l 662 250 z "},"%":{"ha":1082,"x_min":-27,"x_max":1108,"o":"m -27 -98 l 761 879 l 1108 879 l 327 -98 l -27 -98 m 73 597 l 73 879 l 355 879 l 355 597 l 73 597 m 768 -98 l 768 184 l 1050 184 l 1050 -98 l 768 -98 z "},"&":{"ha":1042,"x_min":33,"x_max":1009,"o":"m 380 532 l 380 879 l 662 879 l 662 532 l 1009 532 l 1009 250 l 662 250 l 662 -98 l 380 -98 l 380 250 l 33 250 l 33 532 l 380 532 z "},"'":{"ha":347,"x_min":33,"x_max":315,"o":"m 33 423 l 33 879 l 315 879 l 315 423 l 33 423 z "},"(":{"ha":1042,"x_min":33,"x_max":1009,"o":"m 1009 770 l 315 770 l 315 11 l 1009 11 l 1009 -271 l 33 -271 l 33 1053 l 1009 1053 l 1009 770 z "},")":{"ha":1042,"x_min":33,"x_max":1009,"o":"m 33 1053 l 1009 1053 l 1009 -271 l 33 -271 l 33 11 l 727 11 l 727 770 l 33 770 l 33 1053 z "},"*":{"ha":694,"x_min":33,"x_max":662,"o":"m 206 705 l 206 879 l 488 879 l 488 705 l 662 705 l 662 423 l 488 423 l 488 250 l 206 250 l 206 423 l 33 423 l 33 705 l 206 705 z "},"+":{"ha":1042,"x_min":33,"x_max":1009,"o":"m 380 532 l 380 879 l 662 879 l 662 532 l 1009 532 l 1009 250 l 662 250 l 662 -98 l 380 -98 l 380 250 l 33 250 l 33 532 l 380 532 z "},",":{"ha":347,"x_min":33,"x_max":315,"o":"m 315 358 l 315 -98 l 33 -98 l 33 358 l 315 358 z "},"-":{"ha":1042,"x_min":33,"x_max":1009,"o":"m 33 250 l 33 532 l 1009 532 l 1009 250 l 33 250 z "},".":{"ha":347,"x_min":33,"x_max":315,"o":"m 33 -98 l 33 184 l 315 184 l 315 -98 l 33 -98 z "},"/":{"ha":1082,"x_min":-27,"x_max":1108,"o":"m -27 -98 l 761 879 l 1108 879 l 327 -98 l -27 -98 z "},":":{"ha":347,"x_min":33,"x_max":315,"o":"m 315 705 l 315 423 l 33 423 l 33 705 l 315 705 m 315 358 l 315 76 l 33 76 l 33 358 l 315 358 z "},";":{"ha":347,"x_min":33,"x_max":315,"o":"m 315 705 l 315 423 l 33 423 l 33 705 l 315 705 m 315 358 l 315 -98 l 33 -98 l 33 358 l 315 358 z "},"<":{"ha":1042,"x_min":33,"x_max":1009,"o":"m 1009 905 l 1009 613 l 415 393 l 1009 168 l 1009 -123 l 33 267 l 33 514 l 1009 905 z "},"=":{"ha":1042,"x_min":33,"x_max":1009,"o":"m 33 423 l 33 705 l 1009 705 l 1009 423 l 33 423 m 33 76 l 33 358 l 1009 358 l 1009 76 l 33 76 z "},">":{"ha":1042,"x_min":33,"x_max":1009,"o":"m 1009 514 l 1009 267 l 33 -123 l 33 168 l 627 393 l 33 613 l 33 905 l 1009 514 z "},"?":{"ha":1042,"x_min":33,"x_max":1009,"o":"m 662 184 l 662 -98 l 380 -98 l 380 184 l 662 184 m 33 879 l 1009 879 l 1009 250 l 380 250 l 380 532 l 727 532 l 727 597 l 315 597 l 315 423 l 33 423 l 33 879 z "},"@":{"ha":1042,"x_min":33,"x_max":1009,"o":"m 380 250 l 380 532 l 727 532 l 727 597 l 315 597 l 315 184 l 1009 184 l 1009 -98 l 33 -98 l 33 879 l 1009 879 l 1009 250 l 380 250 z "},"A":{"ha":1042,"x_min":7,"x_max":1035,"o":"m 467 -98 l 467 184 l 610 184 l 521 414 l 321 -98 l 7 -98 l 397 879 l 644 879 l 1035 -98 l 467 -98 z "},"B":{"ha":1042,"x_min":33,"x_max":1009,"o":"m 727 532 l 727 597 l 315 597 l 315 532 l 727 532 m 315 250 l 315 184 l 727 184 l 727 250 l 315 250 m 945 391 l 1009 327 l 1009 -98 l 33 -98 l 33 879 l 1009 879 l 1009 454 l 945 391 z "},"C":{"ha":1042,"x_min":33,"x_max":1009,"o":"m 33 879 l 1009 879 l 1009 597 l 315 597 l 315 184 l 1009 184 l 1009 -98 l 33 -98 l 33 879 z "},"D":{"ha":1042,"x_min":33,"x_max":1009,"o":"m 315 184 l 727 184 l 727 597 l 33 597 l 33 879 l 1009 879 l 1009 -98 l 33 -98 l 33 532 l 315 532 l 315 184 z "},"E":{"ha":1042,"x_min":33,"x_max":1009,"o":"m 1009 879 l 1009 597 l 315 597 l 315 532 l 1009 532 l 1009 250 l 315 250 l 315 184 l 1009 184 l 1009 -98 l 33 -98 l 33 879 l 1009 879 z "},"F":{"ha":1042,"x_min":33,"x_max":1009,"o":"m 33 879 l 1009 879 l 1009 597 l 315 597 l 315 532 l 1009 532 l 1009 250 l 315 250 l 315 -98 l 33 -98 l 33 879 z "},"G":{"ha":1042,"x_min":33,"x_max":1009,"o":"m 1009 -98 l 33 -98 l 33 879 l 1009 879 l 1009 597 l 315 597 l 315 184 l 727 184 l 727 250 l 553 250 l 553 532 l 1009 532 l 1009 -98 z "},"H":{"ha":1042,"x_min":33,"x_max":1009,"o":"m 315 879 l 315 532 l 727 532 l 727 879 l 1009 879 l 1009 -98 l 727 -98 l 727 250 l 315 250 l 315 -98 l 33 -98 l 33 879 l 315 879 z "},"I":{"ha":347,"x_min":33,"x_max":315,"o":"m 315 879 l 315 -98 l 33 -98 l 33 879 l 315 879 z "},"J":{"ha":1042,"x_min":33,"x_max":1009,"o":"m 315 184 l 727 184 l 727 879 l 1009 879 l 1009 -98 l 33 -98 l 33 358 l 315 358 l 315 184 z "},"K":{"ha":1042,"x_min":33,"x_max":1108,"o":"m 33 -98 l 33 879 l 315 879 l 315 589 l 684 879 l 1101 879 l 518 381 l 1108 -98 l 681 -98 l 315 191 l 315 -98 l 33 -98 z "},"L":{"ha":1042,"x_min":33,"x_max":1009,"o":"m 1009 -98 l 33 -98 l 33 879 l 315 879 l 315 184 l 1009 184 l 1009 -98 z "},"M":{"ha":1389,"x_min":33,"x_max":1356,"o":"m 33 -98 l 33 879 l 1356 879 l 1356 -98 l 1074 -98 l 1074 597 l 836 597 l 836 -98 l 553 -98 l 553 597 l 315 597 l 315 -98 l 33 -98 z "},"N":{"ha":1042,"x_min":33,"x_max":1009,"o":"m 33 -98 l 33 879 l 286 879 l 727 357 l 727 879 l 1009 879 l 1009 -98 l 757 -98 l 315 408 l 315 -98 l 33 -98 z "},"O":{"ha":1042,"x_min":33,"x_max":1009,"o":"m 315 597 l 315 184 l 727 184 l 727 597 l 315 597 m 1009 879 l 1009 -98 l 33 -98 l 33 879 l 1009 879 z "},"P":{"ha":1042,"x_min":33,"x_max":1009,"o":"m 727 532 l 727 597 l 315 597 l 315 532 l 727 532 m 315 -98 l 33 -98 l 33 879 l 1009 879 l 1009 250 l 315 250 l 315 -98 z "},"Q":{"ha":1042,"x_min":33,"x_max":1009,"o":"m 315 597 l 315 184 l 727 184 l 727 597 l 315 597 m 553 -98 l 33 -98 l 33 879 l 1009 879 l 1009 -98 l 836 -98 l 836 -271 l 553 -271 l 553 -98 z "},"R":{"ha":1042,"x_min":33,"x_max":1076,"o":"m 315 597 l 315 532 l 727 532 l 727 597 l 315 597 m 410 250 l 315 250 l 315 -98 l 33 -98 l 33 879 l 1009 879 l 1009 250 l 769 250 l 1076 -98 l 716 -98 l 410 250 z "},"S":{"ha":1042,"x_min":33,"x_max":1009,"o":"m 1009 597 l 315 597 l 315 532 l 1009 532 l 1009 -98 l 33 -98 l 33 184 l 727 184 l 727 250 l 33 250 l 33 879 l 1009 879 l 1009 597 z "},"T":{"ha":1042,"x_min":33,"x_max":1009,"o":"m 33 879 l 1009 879 l 1009 597 l 662 597 l 662 -98 l 380 -98 l 380 597 l 33 597 l 33 879 z "},"U":{"ha":1042,"x_min":33,"x_max":1009,"o":"m 315 879 l 315 184 l 727 184 l 727 879 l 1009 879 l 1009 -98 l 33 -98 l 33 879 l 315 879 z "},"V":{"ha":1042,"x_min":7,"x_max":1035,"o":"m 1035 879 l 644 -98 l 397 -98 l 7 879 l 319 879 l 521 365 l 723 879 l 1035 879 z "},"W":{"ha":1389,"x_min":33,"x_max":1356,"o":"m 315 879 l 315 184 l 553 184 l 553 879 l 836 879 l 836 184 l 1074 184 l 1074 879 l 1356 879 l 1356 -98 l 33 -98 l 33 879 l 315 879 z "},"X":{"ha":1042,"x_min":-22,"x_max":1063,"o":"m 345 391 l -22 879 l 331 879 l 521 625 l 711 879 l 1063 879 l 697 391 l 1063 -98 l 711 -98 l 521 156 l 331 -98 l -22 -98 l 345 391 z "},"Y":{"ha":1042,"x_min":-15,"x_max":1057,"o":"m 380 -98 l 380 288 l -15 879 l 332 879 l 521 614 l 713 879 l 1057 879 l 662 288 l 662 -98 l 380 -98 z "},"Z":{"ha":1042,"x_min":-22,"x_max":1063,"o":"m 1009 -98 l -22 -98 l 499 597 l 33 597 l 33 879 l 1063 879 l 543 184 l 1009 184 l 1009 -98 z "},"[":{"ha":694,"x_min":33,"x_max":662,"o":"m 662 770 l 315 770 l 315 11 l 662 11 l 662 -271 l 33 -271 l 33 1053 l 662 1053 l 662 770 z "},"\\":{"ha":1082,"x_min":-26,"x_max":1109,"o":"m 755 -98 l -26 879 l 321 879 l 1109 -98 l 755 -98 z "},"]":{"ha":694,"x_min":33,"x_max":662,"o":"m 33 1053 l 662 1053 l 662 -271 l 33 -271 l 33 11 l 380 11 l 380 770 l 33 770 l 33 1053 z "},"^":{"ha":694,"x_min":-23,"x_max":716,"o":"m -23 770 l 350 1263 l 716 770 l 407 770 l 350 846 l 285 770 l -23 770 z "},"_":{"ha":1042,"x_min":33,"x_max":1009,"o":"m 33 -271 l 33 11 l 1009 11 l 1009 -271 l 33 -271 z "},"`":{"ha":521,"x_min":-1,"x_max":522,"o":"m -1 1226 l 294 1226 l 522 770 l 227 770 l -1 1226 z "},"a":{"ha":1042,"x_min":7,"x_max":1035,"o":"m 467 -98 l 467 184 l 610 184 l 521 414 l 321 -98 l 7 -98 l 397 879 l 644 879 l 1035 -98 l 467 -98 z "},"b":{"ha":1042,"x_min":33,"x_max":1009,"o":"m 727 532 l 727 597 l 315 597 l 315 532 l 727 532 m 315 250 l 315 184 l 727 184 l 727 250 l 315 250 m 945 391 l 1009 327 l 1009 -98 l 33 -98 l 33 879 l 1009 879 l 1009 454 l 945 391 z "},"c":{"ha":1042,"x_min":33,"x_max":1009,"o":"m 33 879 l 1009 879 l 1009 597 l 315 597 l 315 184 l 1009 184 l 1009 -98 l 33 -98 l 33 879 z "},"d":{"ha":1042,"x_min":33,"x_max":1009,"o":"m 315 184 l 727 184 l 727 597 l 33 597 l 33 879 l 1009 879 l 1009 -98 l 33 -98 l 33 532 l 315 532 l 315 184 z "},"e":{"ha":1042,"x_min":33,"x_max":1009,"o":"m 1009 879 l 1009 597 l 315 597 l 315 532 l 1009 532 l 1009 250 l 315 250 l 315 184 l 1009 184 l 1009 -98 l 33 -98 l 33 879 l 1009 879 z "},"f":{"ha":1042,"x_min":33,"x_max":1009,"o":"m 33 879 l 1009 879 l 1009 597 l 315 597 l 315 532 l 1009 532 l 1009 250 l 315 250 l 315 -98 l 33 -98 l 33 879 z "},"g":{"ha":1042,"x_min":33,"x_max":1009,"o":"m 1009 -98 l 33 -98 l 33 879 l 1009 879 l 1009 597 l 315 597 l 315 184 l 727 184 l 727 250 l 553 250 l 553 532 l 1009 532 l 1009 -98 z "},"h":{"ha":1042,"x_min":33,"x_max":1009,"o":"m 315 879 l 315 532 l 727 532 l 727 879 l 1009 879 l 1009 -98 l 727 -98 l 727 250 l 315 250 l 315 -98 l 33 -98 l 33 879 l 315 879 z "},"i":{"ha":347,"x_min":33,"x_max":315,"o":"m 315 879 l 315 -98 l 33 -98 l 33 879 l 315 879 z "},"j":{"ha":1042,"x_min":33,"x_max":1009,"o":"m 315 184 l 727 184 l 727 879 l 1009 879 l 1009 -98 l 33 -98 l 33 358 l 315 358 l 315 184 z "},"k":{"ha":1042,"x_min":33,"x_max":1108,"o":"m 33 -98 l 33 879 l 315 879 l 315 589 l 684 879 l 1101 879 l 518 381 l 1108 -98 l 681 -98 l 315 191 l 315 -98 l 33 -98 z "},"l":{"ha":1042,"x_min":33,"x_max":1009,"o":"m 1009 -98 l 33 -98 l 33 879 l 315 879 l 315 184 l 1009 184 l 1009 -98 z "},"m":{"ha":1389,"x_min":33,"x_max":1356,"o":"m 33 -98 l 33 879 l 1356 879 l 1356 -98 l 1074 -98 l 1074 597 l 836 597 l 836 -98 l 553 -98 l 553 597 l 315 597 l 315 -98 l 33 -98 z "},"n":{"ha":1042,"x_min":33,"x_max":1009,"o":"m 33 -98 l 33 879 l 286 879 l 727 357 l 727 879 l 1009 879 l 1009 -98 l 757 -98 l 315 408 l 315 -98 l 33 -98 z "},"o":{"ha":1042,"x_min":33,"x_max":1009,"o":"m 315 597 l 315 184 l 727 184 l 727 597 l 315 597 m 1009 879 l 1009 -98 l 33 -98 l 33 879 l 1009 879 z "},"p":{"ha":1042,"x_min":33,"x_max":1009,"o":"m 727 532 l 727 597 l 315 597 l 315 532 l 727 532 m 315 -98 l 33 -98 l 33 879 l 1009 879 l 1009 250 l 315 250 l 315 -98 z "},"q":{"ha":1042,"x_min":33,"x_max":1009,"o":"m 315 597 l 315 184 l 727 184 l 727 597 l 315 597 m 380 -98 l 33 -98 l 33 879 l 1009 879 l 1009 -98 l 662 -98 l 662 -271 l 380 -271 l 380 -98 z "},"r":{"ha":1042,"x_min":33,"x_max":1076,"o":"m 315 597 l 315 532 l 727 532 l 727 597 l 315 597 m 410 250 l 315 250 l 315 -98 l 33 -98 l 33 879 l 1009 879 l 1009 250 l 769 250 l 1076 -98 l 716 -98 l 410 250 z "},"s":{"ha":1042,"x_min":33,"x_max":1009,"o":"m 1009 597 l 315 597 l 315 532 l 1009 532 l 1009 -98 l 33 -98 l 33 184 l 727 184 l 727 250 l 33 250 l 33 879 l 1009 879 l 1009 597 z "},"t":{"ha":1042,"x_min":33,"x_max":1009,"o":"m 33 879 l 1009 879 l 1009 597 l 662 597 l 662 -98 l 380 -98 l 380 597 l 33 597 l 33 879 z "},"u":{"ha":1042,"x_min":33,"x_max":1009,"o":"m 315 879 l 315 184 l 727 184 l 727 879 l 1009 879 l 1009 -98 l 33 -98 l 33 879 l 315 879 z "},"v":{"ha":1042,"x_min":7,"x_max":1035,"o":"m 1035 879 l 644 -98 l 397 -98 l 7 879 l 319 879 l 521 365 l 723 879 l 1035 879 z "},"w":{"ha":1389,"x_min":33,"x_max":1356,"o":"m 315 879 l 315 184 l 553 184 l 553 879 l 836 879 l 836 184 l 1074 184 l 1074 879 l 1356 879 l 1356 -98 l 33 -98 l 33 879 l 315 879 z "},"x":{"ha":1042,"x_min":-22,"x_max":1063,"o":"m 345 391 l -22 879 l 331 879 l 521 625 l 711 879 l 1063 879 l 697 391 l 1063 -98 l 711 -98 l 521 156 l 331 -98 l -22 -98 l 345 391 z "},"y":{"ha":1042,"x_min":-15,"x_max":1057,"o":"m 380 -98 l 380 288 l -15 879 l 332 879 l 521 614 l 713 879 l 1057 879 l 662 288 l 662 -98 l 380 -98 z "},"z":{"ha":1042,"x_min":-22,"x_max":1063,"o":"m 1009 -98 l -22 -98 l 499 597 l 33 597 l 33 879 l 1063 879 l 543 184 l 1009 184 l 1009 -98 z "},"{":{"ha":1042,"x_min":33,"x_max":1009,"o":"m 33 -98 l 33 879 l 1009 879 l 1009 -98 l 33 -98 z "},"|":{"ha":347,"x_min":33,"x_max":315,"o":"m 33 -271 l 33 1053 l 315 1053 l 315 -271 l 33 -271 z "},"}":{"ha":1042,"x_min":33,"x_max":1009,"o":"m 33 -98 l 33 879 l 1009 879 l 1009 -98 l 33 -98 z "},"~":{"ha":694,"x_min":33,"x_max":662,"o":"m 33 463 l 259 644 l 434 513 l 662 688 l 662 343 l 435 161 l 260 293 l 33 122 l 33 463 z "},"‘":{"ha":347,"x_min":33,"x_max":315,"o":"m 33 423 l 33 879 l 315 879 l 315 423 l 33 423 z "},"’":{"ha":347,"x_min":33,"x_max":315,"o":"m 33 423 l 33 879 l 315 879 l 315 423 l 33 423 z "},"“":{"ha":694,"x_min":33,"x_max":662,"o":"m 33 423 l 33 879 l 315 879 l 315 423 l 33 423 m 380 423 l 380 879 l 662 879 l 662 423 l 380 423 z "},"”":{"ha":694,"x_min":33,"x_max":662,"o":"m 33 423 l 33 879 l 315 879 l 315 423 l 33 423 m 380 423 l 380 879 l 662 879 l 662 423 l 380 423 z "},"£":{"ha":1215,"x_min":33,"x_max":1183,"o":"m 206 532 l 206 879 l 1183 879 l 1183 423 l 901 423 l 901 597 l 488 597 l 488 532 l 836 532 l 836 250 l 488 250 l 488 184 l 1183 184 l 1183 -98 l 206 -98 l 206 250 l 33 250 l 33 532 l 206 532 z "},"¥":{"ha":1042,"x_min":-15,"x_max":1057,"o":"m 662 76 l 662 -98 l 380 -98 l 380 76 l 136 76 l 136 358 l 332 358 l -15 879 l 334 879 l 517 594 l 712 879 l 1057 879 l 709 358 l 939 358 l 939 76 l 662 76 z "},"€":{"ha":1215,"x_min":33,"x_max":1183,"o":"m 1183 -98 l 206 -98 l 206 250 l 33 250 l 33 532 l 206 532 l 206 879 l 1183 879 l 1183 597 l 488 597 l 488 532 l 1183 532 l 1183 250 l 488 250 l 488 184 l 1183 184 l 1183 -98 z "},"¢":{"ha":1042,"x_min":33,"x_max":1009,"o":"m 380 -98 l 33 -98 l 33 879 l 380 879 l 380 1053 l 662 1053 l 662 879 l 1009 879 l 1009 597 l 662 597 l 662 184 l 1009 184 l 1009 -98 l 662 -98 l 662 -271 l 380 -271 l 380 -98 m 380 597 l 315 597 l 315 184 l 380 184 l 380 597 z "},"÷":{"ha":1042,"x_min":33,"x_max":1009,"o":"m 33 250 l 33 532 l 1009 532 l 1009 250 l 33 250 m 662 879 l 662 597 l 380 597 l 380 879 l 662 879 m 662 184 l 662 -98 l 380 -98 l 380 184 l 662 184 z "},"©":{"ha":515,"x_min":33,"x_max":483,"o":"m 33 879 l 483 879 l 483 703 l 209 703 l 209 605 l 483 605 l 483 429 l 33 429 l 33 879 z "},"®":{"ha":518,"x_min":33,"x_max":552,"o":"m 309 703 l 309 741 l 209 741 l 209 703 l 309 703 m 209 564 l 209 426 l 33 426 l 33 879 l 486 879 l 486 564 l 430 564 l 552 426 l 323 426 l 209 564 z "},"™":{"ha":868,"x_min":33,"x_max":836,"o":"m 674 426 l 556 426 l 556 700 l 519 700 l 519 426 l 382 426 l 382 700 l 350 700 l 350 423 l 171 423 l 171 700 l 33 700 l 33 879 l 836 879 l 836 426 l 711 426 l 711 700 l 674 700 l 674 426 z "}}}
